<?xml version="1.0" encoding="utf-8"?>
<svg version="1.1" id="Velocidades" xmlns="http://www.w3.org/2000/svg" xmlns:xlink="http://www.w3.org/1999/xlink" x="0px" y="0px" viewBox="0 0 500 400" style="enable-background: new 0 0 500 400;" xml:space="preserve">
    <style type="text/css">
        .st0 {
            fill: none;
        }
        .st1 {
            fill: #1e1e1c;
        }
        .st2 {
            font-family: "BarlowSemiCondensed-LightItalic";
        }
        .st3 {
            font-size: 7.5px;
        }
        .st4 {
            fill: #b1b1b1;
        }
        .st5 {
            fill: #d9d9d9;
        }
        .st6 {
            fill: #db9f00;
        }
        .st7 {
            fill: none;
            stroke: #db9f00;
            stroke-width: 0.5971;
            stroke-miterlimit: 10;
        }
        .st8 {
            fill: none;
            stroke: #b1b1b1;
            stroke-width: 0.5971;
            stroke-miterlimit: 10;
        }

        .st9 {
            fill: none;
            stroke: #1e1e1c;
            stroke-width: 0.75;
            stroke-linecap: round;
            stroke-linejoin: round;
            stroke-miterlimit: 10;
            stroke-dasharray: 0, 4, 0, 0;
        }

        .st10 {
            fill: none;
            stroke: #1e1e1c;
            stroke-width: 0.8957;
            stroke-linecap: round;
            stroke-linejoin: round;
            stroke-miterlimit: 10;
            stroke-dasharray: 0, 4.7771, 0, 0;
        }
        .st11 {
            font-family: "BarlowSemiCondensed-Light";
        }
        .st12 {
            font-size: 8.9571px;
        }
        .st13 {
            font-family: "BarlowSemiCondensed-SemiBold";
        }
        .st14 {
            fill: none;
            stroke: #1e1e1c;
            stroke-width: 0.5;
            stroke-miterlimit: 10;
        }
        .st15 {
            fill: none;
            stroke: #d9d9d9;
            stroke-width: 0.5971;
            stroke-miterlimit: 10;
        }
         
    </style>
    <rect x="124.51" y="258.41" class="st0" width="209.93" height="6.75" />
    <path
        id="Caballo"
        class="st5"
        d="m290.42 256.44c-0.26 0.15-0.45 0.26-0.64 0.37-1.9 1.16-3.81 2.31-5.7 3.49-0.82 0.51-1.6 1.1-2.43 1.62-1.53 0.95-3.03 1.96-4.63 2.77-1.44 0.73-2.44 1.87-3.4 3.08-0.53 0.67-1.02 1.38-1.56 2.05-0.23 0.29-0.47 0.61-0.79 0.77-1.82 0.92-3.79 1.1-5.78 1.25-0.03-0.99 0.71-2.35 1.44-2.55 0.41-0.11 0.97-0.05 1.33 0.17 0.82 0.49 0.95 0.48 1.43-0.38 0.18-0.34 0.45-0.68 0.77-0.88 1.99-1.23 3.36-3 4.38-5.06 0.39-0.8 0.91-1.33 1.75-1.64 0.64-0.24 1.24-0.59 1.82-0.95 2.14-1.33 3.17-3.21 3.21-5.78 0.03-1.84 0.29-3.71 0.69-5.51 0.29-1.3 0.98-2.5 1.51-3.79-1.36 0.38-2.42 1.2-3.27 2.41 0.2-0.41 0.36-0.84 0.6-1.23 0.23-0.38 0.55-0.7 0.82-1.05-0.07-0.07-0.14-0.13-0.2-0.2-0.54 0.58-1.24 1.07-1.59 1.74-0.76 1.45-1.78 2.56-3.27 3.26-0.43 0.2-0.77 0.57-1.28 0.77 0.93-1.08 1.86-2.17 2.79-3.25-0.08-0.07-0.16-0.13-0.24-0.2-1.57 1.25-3.25 2.38-4.11 4.33-0.4 0.91-0.84 1.82-1.35 2.67-0.57 0.95-1.44 1.59-2.54 1.94 1.59-1.24 1.58-3.13 1.93-4.9-0.22 0.28-0.46 0.54-0.64 0.84-0.55 0.91-1.07 1.83-1.6 2.74-1.1 1.89-2.8 2.85-4.98 3.13 2.65-1.23 3.93-3.42 4.31-6.26-0.2 0.26-0.46 0.5-0.61 0.79-1.13 2.21-2.76 3.86-5.02 4.99-1.06 0.54-1.92 1.48-2.79 2.18 0.41-1.36 1.4-2.51 2.61-3.47 1.23-0.98 2.2-2.14 2.99-3.5 0.57-0.98 1.32-1.85 2.1-2.93-1.26 0.46-2.25 1.09-3 2.01-0.74 0.9-1.37 1.9-2.03 2.87-1.1 1.64-2.56 2.7-4.58 2.94 1.73-0.79 2.65-2.23 3.41-3.9 0.5-1.09 1.36-2.02 2.05-3.02 0.07-0.1 0.14-0.21 0.33-0.49-2.13 0.69-3.26 2.13-4.13 3.86 0.32-1.75 1.01-3.28 2.59-4.25 0.73-0.45 1.47-0.88 2.24-1.28 1.72-0.89 3.06-2.18 4.1-3.81 0.44-0.7 0.94-1.38 1.51-1.97 2.08-2.16 4.86-2.71 7.65-1.6 1.83 0.73 3.66 1.47 5.51 2.12 0.9 0.32 1.78 0.22 2.71-0.23 2.41-1.16 5.02-1.28 7.64-1.11 3.76 0.25 7.53 0.58 11.29 0.76 2.37 0.11 4.67-0.31 6.83-1.37 0.63-0.31 1.34-0.52 2.04-0.62 1.45-0.2 2.55-0.93 3.49-2 1-1.14 2.01-2.28 3.06-3.36 2.37-2.43 5.23-4.07 8.5-4.97 0.67-0.18 0.91-0.46 0.9-1.17s0.21-1.42 0.33-2.13c0.11-0.01 0.23-0.01 0.34-0.02 0.17 0.44 0.34 0.89 0.61 1.59 0.17-0.52 0.27-0.81 0.36-1.1 0.07-0.02 0.13-0.04 0.2-0.05 0.15 0.63 0.25 1.28 0.46 1.89 0.19 0.54 0.37 1.22 0.79 1.51 3.03 2.14 4.63 5.47 6.99 8.16 0.57 0.65 0.12 1.37-0.25 1.79-0.45 0.5-1.19 0.75-1.84 1.03-0.14 0.06-0.43-0.19-0.63-0.32-0.43-0.29-0.82-0.69-1.29-0.88-1.72-0.69-3.48-1.29-5.2-1.99-0.63-0.26-0.91-0.01-1.15 0.48-0.73 1.49-1.44 2.99-2.17 4.47-0.3 0.62-0.59 1.25-0.97 1.82-1.24 1.85-1.66 3.9-1.71 6.09-0.04 1.59-0.7 2.99-1.66 4.1 2.1 3.35 5.48 5.29 8.09 8.02 2.65 2.76 6.39 3.96 9.23 6.57-0.69 0.65-1.48 0.97-2.34 1-0.87 0.03-1.3-0.46-1.27-1.32 0.02-0.56-0.25-0.85-0.75-0.81-0.91 0.08-1.5-0.41-2.07-1-1.4-1.46-3.05-2.52-4.86-3.45-2.28-1.17-4.38-2.69-6.59-4.01-0.88-0.52-1.84-0.91-2.75-1.36-0.59-0.29-1.17-0.59-1.74-0.91-1-0.57-1.8-0.35-2.18 0.7-0.93 2.55-1.85 5.1-2.71 7.68-0.26 0.79-0.7 1.2-1.49 1.1-1.07-0.14-2.13-0.38-3.2-0.58-0.17-0.03-0.34-0.1-0.51-0.08-2.35 0.27-4.23-1.03-6.23-1.89-0.29-0.12-0.51-0.41-0.76-0.63 0.24-0.26 0.45-0.57 0.74-0.76 0.36-0.22 0.77-0.4 1.18-0.48 0.89-0.17 1.33 0.16 1.44 1.06 0.07 0.6 0.4 0.72 0.95 0.71 0.49-0.01 0.98 0.12 1.46 0.21 1.09 0.21 2.16 0.54 3.26 0.62 1.11 0.08 1.43-0.27 1.59-1.35 0.26-1.81 0.51-3.62 0.73-5.43 0.14-1.14-0.04-1.29-1.35-1.35-3.93-0.17-7.81-0.61-11.59-1.73-1.07-0.32-2.12-0.69-3.16-1.08-0.6-0.23-0.83-0.11-1.02 0.53-0.42 1.41-0.91 2.81-1.47 4.18-1.16 2.8-1 3.55 1.38 5.2 0.79 0.55 1.68 0.97 2.55 1.4 2.1 1.03 2.6 3.07 3.18 5.05 0.04 0.12-0.24 0.46-0.42 0.5-1.46 0.3-2.52-0.89-2.08-2.33 0.16-0.52-0.14-0.62-0.55-0.74s-0.94-0.27-1.14-0.58c-0.85-1.34-2.12-2.06-3.5-2.65-1.03-0.44-2.09-0.79-3.1-1.26-0.94-0.44-1.11-0.88-0.83-1.88 0.32-1.15 0.74-2.29 1.02-3.45 0.26-1.06-0.04-2.07-0.52-3.1z"
    />
</svg>
