<?xml version="1.0" encoding="utf-8"?>
<!-- Generator: Adobe Illustrator 22.0.1, SVG Export Plug-In . SVG Version: 6.00 Build 0)  -->
<svg version="1.1" id="Velocidades" xmlns="http://www.w3.org/2000/svg" xmlns:xlink="http://www.w3.org/1999/xlink" x="0px"
	 y="0px" viewBox="0 0 100 50" style="enable-background:new 0 0 100 50;" xml:space="preserve">
<style type="text/css">
	.st0{fill:#B1B1B1;}
</style>
<path id="Gato" class="st0" d="M47,36.8c-0.2,0-0.3,0.1-0.5,0.1C46,36.9,45.6,37,45.2,37c-0.1,0-0.1,0-0.2,0c-0.3-0.1-0.5,0-0.6,0.3
	c-0.2,0.4-0.3,0.8-0.5,1.2c0,0.1-0.1,0.1-0.1,0.2c-0.1,0.2-0.2,0.2-0.4,0.1c-0.1,0-0.2-0.1-0.1-0.2c0-0.1,0-0.1,0-0.1
	c0-0.1,0-0.2,0.1-0.3s0.1-0.2,0.1-0.4c0.1-0.5,0.2-0.9,0.4-1.3c0,0,0-0.1,0-0.1h-0.1c-0.4,0.3-0.9,0.3-1.4,0.2
	c-0.3-0.1-0.6-0.3-0.8-0.5c-0.2-0.2-0.3-0.4-0.4-0.6c-0.1-0.1,0-0.1,0.1-0.1c0.2,0,0.3,0.1,0.4,0.1c0.2,0.1,0.4,0.3,0.6,0.4
	c0.5,0.2,0.9,0.1,1.3-0.3c0.3-0.3,0.6-0.6,0.9-0.9c0.2-0.2,0.3-0.3,0.4-0.5c0.1-0.2,0.3-0.4,0.4-0.6c0.2-0.3,0.5-0.6,0.9-0.7
	c0.2-0.1,0.3-0.1,0.5-0.1c0.3-0.1,0.7-0.2,1-0.2c0.4,0,0.8,0,1.2,0c0.6,0.1,1.2,0.1,1.8,0.2c0.5,0.1,0.9,0.1,1.4,0
	c0.4-0.1,0.9-0.1,1.3,0c0.3,0,0.5,0.1,0.8-0.1c0.1-0.1,0.2-0.1,0.3-0.1c0.5,0,0.9-0.2,1.4-0.5c0,0,0.1-0.1,0.1-0.1
	c0-0.2,0.2-0.3,0.3-0.4c0.1,0,0.2,0.1,0.3,0.2l0.1,0.1c0.1-0.1,0.2-0.1,0.2-0.2c0,0,0.1,0,0.1,0c0,0,0.1,0.1,0,0.1
	c0,0.1,0,0.1-0.1,0.2c-0.1,0.1,0,0.1,0.1,0.2c0.1,0.1,0.3,0.2,0.4,0.3c0.2,0.2,0.3,0.4,0.3,0.6c0,0.2,0,0.4,0.2,0.5
	c0.1,0.1,0.1,0.3,0,0.4c-0.2,0.3-0.4,0.4-0.8,0.3c-0.4-0.1-0.8,0-1.2,0.2c-0.1,0-0.1,0.1-0.1,0.1c0,0.5,0,0.9,0.2,1.4
	c0,0.1,0.1,0.2,0.2,0.3c0.2,0.2,0.4,0.4,0.6,0.6c0.3,0.3,0.6,0.6,0.9,0.9c0.1,0.1,0.2,0.2,0.4,0.3c0.1,0,0.1,0.1,0.2,0.1
	s0.1,0,0.2,0.1c0.1,0,0.2,0.1,0.2,0.3s-0.1,0.2-0.2,0.2c-0.1,0-0.3,0.1-0.4,0c0,0,0,0-0.1,0c-0.3,0.1-0.4-0.1-0.6-0.3
	c-0.2-0.2-0.5-0.3-0.8-0.5c-0.5-0.4-1.1-0.7-1.6-1.1c-0.2-0.2-0.5-0.2-0.8-0.2c-0.2,0-0.4-0.1-0.5-0.2c-0.1-0.1-0.1-0.1-0.2,0
	c-0.5,0.3-0.8,0.8-1,1.3c-0.1,0.1-0.1,0.3-0.2,0.5c0,0.1-0.1,0.2-0.1,0.3c0,0.2,0.1,0.2,0.2,0.3c0.1,0,0.2,0.1,0.3,0.2
	c0,0.2,0,0.2-0.2,0.2c-0.2,0-0.3,0-0.5,0c-0.3,0-0.4-0.1-0.5-0.4c0-0.2-0.1-0.4-0.1-0.7c0-0.1,0-0.2,0.1-0.2
	c0.1-0.2,0.1-0.4,0.2-0.6c0.1-0.3,0.1-0.6,0.1-0.9c0-0.2,0-0.2-0.2-0.1c-0.6,0.1-1.1,0.2-1.7,0.1c-0.4,0-0.7,0-1.1,0.1
	c-0.1,0-0.1,0.1-0.2,0.1c-0.3,0.3-0.6,0.6-0.8,1c-0.1,0.2-0.1,0.3,0,0.5c0.1,0.1,0.3,0.2,0.4,0.4c0.1,0.1,0.2,0.1,0.4,0.1
	c0.2,0,0.3,0.1,0.4,0.2c0.1,0.1,0.1,0.2,0,0.2c-0.1,0.1-0.2,0.1-0.2,0.1c-0.1,0-0.3,0-0.4,0c-0.3,0-0.6-0.1-0.8-0.3
	c-0.3-0.3-0.6-0.6-0.9-0.9c-0.2-0.2-0.2-0.4-0.1-0.7c0.1-0.1,0.1-0.3,0.2-0.4C47,36.9,47,36.8,47,36.8L47,36.8z"/>
</svg>
