<?xml version="1.0" encoding="utf-8"?>
<!-- Generator: Adobe Illustrator 22.0.1, SVG Export Plug-In . SVG Version: 6.00 Build 0)  -->
<svg version="1.1" id="Velocidades" xmlns="http://www.w3.org/2000/svg" xmlns:xlink="http://www.w3.org/1999/xlink" x="0px"
	 y="0px" viewBox="0 0 100 50" style="enable-background:new 0 0 100 50;" xml:space="preserve">
<style type="text/css">
	.st0{fill:#DB9F00;}
	.st1{fill:none;stroke:#DB9F00;stroke-width:0.5971;stroke-miterlimit:10;}
</style>
<g id="Gibon">
	<g>
		<path class="st0" d="M52.4,35.3C52.5,35.3,52.5,35.3,52.4,35.3c0.1,0.2,0.2,0.3,0.2,0.4c0.1,0.1,0.2,0.2,0.3,0.2
			c0.6,0,1.1,0,1.8,0c0,0,0,0,0,0c-0.1-0.1-0.2-0.1-0.2-0.2c-0.3,0-0.7,0-1,0c-0.1,0-0.1,0-0.3,0c0.1-0.1,0.2-0.2,0.3-0.3
			c0.1-0.1,0.1-0.2,0.1-0.3L52.4,35.3z"/>
		<path class="st0" d="M54.8,35.6c0,0.3,0.2,0.5,0.4,0.6c0,0,0.2-0.1,0.2-0.1C55.4,35.9,55.1,35.6,54.8,35.6L54.8,35.6z"/>
		<path class="st0" d="M51.7,36.3C51.4,36,51,36,50.7,36C51,36.1,51.3,36.2,51.7,36.3C51.6,36.3,51.6,36.3,51.7,36.3L51.7,36.3z"/>
		<path class="st0" d="M52.4,35.3C52.5,35.3,52.5,35.3,52.4,35.3l0.5,0.6c0,0,1-0.1,1.7,0c0.1,0,0.1,0,0.2,0c0.1,0,0.2,0,0.2,0.1
			c0.1,0.1,0.2,0.1,0.3,0.1c0.4,0.2,0.4,0.5,0.7,0.5c0.2,0,0.5-0.3,0.3-0.4c-0.2-0.2-0.7-0.7-1.3-1S53.5,35,53.5,35L52.4,35.3
			L52.4,35.3z"/>
		<path class="st0" d="M35.7,15.1c0,0.1,0.1,0.2,0.1,0.3c0,0,0.1,0,0.1,0.1c0,0.4,0.3,0.2,0.4,0.2c0.2,0.1,0.4,0.1,0.6,0.1
			c0.1,0,0.2,0.1,0.3,0.1c0.4-0.1,0.6,0.1,0.7,0.4c0.2,0.4,0.4,0.9,0.5,1.4c0.2,0.6,0.5,1.1,0.8,1.7c0.2,0.4,0.4,0.7,0.6,1.1
			c0,0.1,0.1,0.1,0.1,0.2c0.5,0.4,0.7,1.1,0.9,1.6c0.4,0.7,0.7,1.4,1,2.2c0.2,0.4,0.3,0.8,0.5,1.2c0.1,0.2,0.2,0.3,0.2,0.5
			c0.1,0.1,0.1,0.2,0.1,0.4c0,0,0.1,0,0.1,0c0.1,0.2,0.2,0.4,0.2,0.6c0.1,0.6,0.2,1.2,0.3,1.8c0.1,0.2,0.2,0.5,0.3,0.7
			c0.3,0.7,0.5,1.3,0.8,2c0.1,0.2,0.2,0.3,0.3,0.5c0.2,0.3,0.4,0.5,0.8,0.6c0,0,0.1,0,0.1,0c0.3,0.2,0.6,0.4,0.8,0.5
			c0.5,0.2,0.9,0.3,1.5,0.2c0.6-0.1,0.8-0.1,1.1,0.5c0.2,0.6,0.5,1.1,0.8,1.6l0,0.1c0.1,0.1,0.1,0.1,0.3,0c0.2-0.1,0.4-0.1,0.6-0.2
			c0.1,0,0.1,0,0.2,0c-0.3-0.3-0.3-0.8-0.3-1.2c0-0.1,0-0.2,0-0.2c0.1-0.2,0.2-0.2,0.3-0.1c0.5,0.5,0.9,0.9,1.4,1.4l1.1-0.3
			c-0.1-0.4-0.3-0.7-0.5-1.1c-0.2-0.5-0.6-0.9-1-1.3c-0.3-0.3-0.5-0.6-0.8-0.8c-0.1-0.1-0.3-0.1-0.4-0.2c-0.4,0-0.8,0-1.1-0.3
			c-0.1-0.1-0.3-0.1-0.5-0.2c-0.5-0.1-1-0.2-1.5-0.5c-0.2-0.1-0.3-0.2-0.2-0.4c0.3-0.7,0.4-1.4,0.4-2.1c0-0.3,0.1-0.3,0.3-0.2
			c0.1,0,0.1,0,0.2,0c0.5,0,1.1-0.1,1.6-0.1c0.5,0,1,0,1.5,0c0.4,0,0.6-0.2,0.9-0.4c0.4-0.4,0.7-0.8,1.1-1.2
			c0.2-0.3,0.3-0.6,0.5-0.9c0.1-0.2,0.3-0.4,0.4-0.6c0.3-0.4,0.5-0.8,0.8-1.1c0,0,0.1-0.1,0.1-0.1c0.2-0.3,0.5-0.5,0.6-0.9
			c0.1-0.2,0.3-0.4,0.5-0.6c0.3-0.3,0.7-0.7,1-1c-0.2-0.1-0.1-0.2,0-0.3c0.1-0.1,0.3-0.3,0.1-0.5c-0.1,0.1-0.3,0.2-0.4,0.3
			c0,0,0,0-0.1-0.1c0.1-0.1,0.2-0.3,0.2-0.4l0,0c-0.3,0.4-0.7,0.8-1,1.2c-0.1-0.1-0.1-0.1-0.2-0.2c-0.1,0.2-0.3,0.5-0.4,0.7
			c-0.1,0.2-0.1,0.4-0.2,0.6c0,0.1-0.1,0.1-0.2,0.1c-0.2,0-0.3,0.1-0.4,0.2c-0.2,0.3-0.5,0.7-0.8,1c-0.1,0.2-0.3,0.3-0.5,0.4
			c-0.4,0.4-0.8,0.9-1.1,1.3c-0.3,0.3-0.5,0.5-0.9,0.8c-0.4,0.3-0.8,0.2-1.2,0.1c-0.7-0.2-1.3-0.4-2-0.4c-0.3,0-0.5,0.1-0.6,0.3
			c-0.1,0.1-0.1,0.1-0.2,0c-0.3-0.3-0.5-0.6-0.6-0.9c-0.2-0.4-0.1-0.5,0.2-0.8c0.1-0.1,0.1-0.1,0.2-0.1c0.2-0.2,0.4-0.4,0.8-0.3
			c0.1-0.4-0.8-1-1.2-1c-0.6-0.1-1.2,0.3-1.3,0.8h-0.2c-0.1,0-0.1,0-0.2,0c-0.3,0.1-0.3,0.1-0.4-0.1c-0.1-0.1-0.1-0.3-0.3-0.3
			c-0.1,0-0.2-0.3-0.3-0.4c-0.1-0.2-0.1-0.3-0.3-0.4c-0.2-0.2-0.3-0.4-0.4-0.6c-0.3-0.4-0.6-0.9-0.9-1.4c-0.3-0.5-0.7-0.9-1.1-1.3
			c-0.6-0.6-1-1.4-1.4-2.2c-0.1-0.1-0.2-0.2-0.2-0.4c-0.1-0.1-0.1-0.2-0.2-0.4c0.3,0,0.5,0,0.7,0.1c0.4,0.1,0.9,0.2,1.3,0.3
			c0.2,0.1,0.3,0.2,0.1,0.4c-0.1,0.1-0.1,0.2-0.1,0.3c0.1,0,0.2,0.1,0.3,0.1c0.3,0,0.5-0.1,0.7-0.3c0.2-0.2,0.3-0.2,0.6,0
			c0.2,0.1,0.2,0.2,0.2,0.4c0,0.1,0,0.3,0,0.4c0,0.1,0.1,0.2,0.1,0.3c0,0,0.1,0,0.1,0c0-0.1,0.1-0.3,0.1-0.4c0-0.2,0.1-0.4,0.2-0.5
			c0.1-0.1,0.2-0.1,0.3-0.1s0.2,0.1,0.3,0.1c0,0.1-0.1,0.1-0.1,0.2c0.3-0.1,0.7-0.2,1.1-0.1c0,0,0.1,0.1,0.2,0.1c-0.2,0-0.2,0-0.3,0
			c0.1,0.2,0.2,0.2,0.4,0.1c0.1-0.1,0.2-0.1,0.3-0.1c0.2,0,0.5,0.1,0.7,0.1c0.5,0.2,1.1,0.4,1.6,0.6c0-0.2-0.1-0.5-0.1-0.7
			c0-0.1-0.1-0.2-0.2-0.2c-0.1,0-0.1-0.1-0.2-0.1c-0.4-0.2-0.4-0.2-0.6,0.2l0.1-0.4L46.4,17L46,17.3c0,0-0.1,0.1-0.1,0.1
			c-0.3-0.1-0.5-0.1-0.8-0.1c-0.3-0.1-0.5-0.2-0.5-0.6c0-0.2-0.2-0.3-0.3-0.5c-0.1,0.2-0.3,0.4-0.5,0.3c0,0-0.1,0-0.1,0
			c-0.2,0.3-0.3,0-0.5,0c-0.1,0-0.2,0.1-0.3,0.1c0,0-0.1,0-0.1-0.1c0,0,0-0.1,0-0.1c0-0.1,0.1-0.2,0.1-0.3c-0.1,0-0.2-0.1-0.3-0.1
			c-0.1,0-0.2,0-0.3,0c0.1,0.2-0.1,0.3-0.2,0.3c-0.1-0.1-0.2-0.3-0.3-0.4c-0.1,0.3-0.4,0.2-0.6,0.2c-0.1,0-0.3,0.1-0.5,0.1
			c-0.1-0.3-0.3-0.3-0.5-0.2c-0.1,0-0.2,0-0.2-0.1c-0.1-0.2-0.3-0.2-0.4-0.1c-0.2,0.1-0.3,0-0.4-0.1c-0.1-0.2-0.3-0.4-0.5-0.5
			c-0.3-0.3-0.4-0.3-0.6,0c-0.1,0.1-0.1,0.2-0.2,0.3h0c-0.1-0.3-0.3-0.3-0.6-0.2c-0.2,0.1-0.5,0.1-0.7-0.1c0,0-0.1,0-0.2,0
			c-0.1,0-0.2,0.1-0.3,0.1c0.1-0.1,0.1-0.2,0.1-0.3c0,0,0,0-0.1-0.1C35.8,15,35.7,15,35.7,15.1L35.7,15.1z"/>
		<path class="st0" d="M50,35.7c0,0.1,0,0.1,0.1,0.1c0.1,0,0.4,0.3,0.7,0.3c0,0,0.1,0,0.1,0c0,0,0.1,0,0.1,0
			c0.3,0.1,0.6,0.5,0.8,0.7c0.3,0.3,0.2,0.6,0.2,0.6s0.5,0,0.5-0.1s0-0.6-0.1-0.7s-0.3-0.4-0.3-0.5s-1.1-0.5-1.2-0.6h0
			c-0.2,0.1-0.4,0.1-0.6,0.2C50.1,35.8,50,35.8,50,35.7L50,35.7z"/>
		<path class="st0" d="M47.9,24.5c0,0.1,0.1,0.4,0.1,0.6s-0.2,0.5-0.4,0.6c-0.1,0.1-0.2,0.4-0.3,0.2c-0.1-0.1-0.4-0.4-0.5-0.7
			c-0.1-0.2,0-0.4,0.1-0.5s0.2-0.3,0.4-0.4s0.3-0.2,0.4,0L47.9,24.5L47.9,24.5z"/>
	</g>
	<path class="st1" d="M35.1,12.6c9.3,7.3,19.1,7.3,29.8,3.9"/>
</g>
</svg>
