<?xml version="1.0" encoding="utf-8"?>
<!-- Generator: Adobe Illustrator 22.0.1, SVG Export Plug-In . SVG Version: 6.00 Build 0)  -->
<svg version="1.1" id="Velocidades" xmlns="http://www.w3.org/2000/svg" xmlns:xlink="http://www.w3.org/1999/xlink" x="0px"
	 y="0px" viewBox="0 0 100 40" style="enable-background:new 0 0 100 40;" xml:space="preserve">
<style type="text/css">
	.st0{fill:#B2B2B2;}
	.st1{fill:#FFFFFF;}
</style>
<g>
	<path class="st0" d="M48.7,37.1c0,0,0.1-0.1,0.2-0.2c-0.2,0-0.3,0-0.4,0c-0.4,0-0.7-0.1-1-0.2c-0.1-0.1-0.3-0.1-0.4-0.2
		c-0.1,0-0.1,0-0.2,0c-0.2,0.1-0.5,0.2-0.7,0.2c-0.2,0-0.5-0.1-0.7-0.2c-0.1,0-0.2-0.1-0.2,0c-0.2,0.1-0.3,0.1-0.5,0.2
		c-0.3,0.2-0.5,0.3-0.8,0.5c-0.3,0.1-0.7,0.2-1.1,0c-0.1,0-0.2-0.1-0.2-0.2c0,0-0.1-0.1-0.1-0.1c0,0,0-0.1,0.1-0.1
		c0.1,0,0.1-0.3,0.4-0.2c0.1,0,0.1,0,0.2,0c0.1-0.2,0.2-0.2,0.4-0.1c0.3,0.1,0.5,0.1,0.7-0.1c0.2-0.1,0.3-0.3,0.4-0.4
		c0,0,0-0.1,0-0.1c0-0.1-0.1-0.2-0.1-0.4c0,0,0-0.1,0-0.1c-0.2,0-0.3-0.1-0.5,0c-0.2,0.2-0.5,0.3-0.7,0.5c-0.3,0.3-0.6,0.3-0.9,0.2
		c-0.1,0-0.2-0.2-0.3-0.3c-0.1-0.1,0.1-0.5,0.3-0.5c0.1,0,0.2-0.1,0.3-0.2c-0.1,0-0.2-0.1-0.3-0.1c-0.4-0.1-0.8-0.3-1.2-0.4
		c-0.4-0.1-0.9-0.2-1.3-0.2c-0.5,0-1,0.2-1.4,0.6c0,0,0,0,0,0c-0.1,0-0.1,0.2-0.2,0.1c0,0,0-0.2,0-0.3c0.2-0.4,0.4-0.5,0.8-0.7
		c0.5-0.1,0.9-0.2,1.4-0.1c0.4,0.1,0.8,0.2,1.1,0.3c0.5,0.1,1.1,0.3,1.6,0.4c0.2,0,0.4,0.1,0.5,0.1c0,0,0.1,0,0.1,0
		c0.1-0.1,0.2-0.1,0.2-0.2c0.3-0.2,0.4-0.3,0.7-0.1c0.2-0.2,0.5-0.3,0.7-0.5c0.3-0.2,0.7-0.3,1.1-0.3c0.5,0,0.9,0.2,1.4,0.4
		c0.2,0.1,0.4,0.2,0.7,0.3c0.2,0.1,0.3,0.1,0.5,0c0.1-0.1,0.1-0.1,0-0.2c0,0-0.1-0.1-0.1-0.1c0-0.1-0.1-0.2,0-0.3
		c0.1-0.1,0.2-0.2,0.3-0.2c0.2,0,0.3-0.1,0.4-0.1c0.1-0.1,0.3-0.1,0.4,0c0.3,0.2,0.7,0.5,0.6,1c0,0.2,0.1,0.3,0.2,0.4
		c0.1,0.1,0.2,0.1,0.3,0.2c0.1-0.2,0-0.3,0-0.4c0,0,0,0,0,0c0,0.1,0.1,0.2,0.1,0.3c0,0.3,0,0.3,0.2,0.5c0.1-0.2,0.1-0.3,0.1-0.5
		c0-0.2-0.1-0.3-0.1-0.5c0.2,0.3,0.2,0.7,0.1,1c0,0.1,0,0.1,0,0.2c0,0.1,0,0.3,0.1,0.4c0.1,0.2,0,0.4-0.2,0.4c-0.1,0-0.3,0-0.4,0.1
		c-0.1,0-0.3,0-0.4,0.1c-0.1,0-0.1,0.1-0.2,0.2c0.1,0.1,0.3,0.2,0.4,0.1c0.2-0.1,0.3,0,0.4,0.1c0.1,0,0.1,0.1,0,0.3
		c0.1,0.1,0.3,0.1,0.3,0.4c0,0.1-0.1,0.1-0.1,0.1c0,0.1-0.1,0.2-0.1,0.2c-0.1,0-0.2,0-0.2,0c0,0-0.1,0.1-0.1,0.2
		c-0.1,0.1-0.2,0.1-0.3-0.1c-0.1-0.4-0.3-0.6-0.7-0.7c-0.4-0.1-0.8-0.2-1.1-0.4c-0.1,0-0.1,0-0.2,0C48.8,37.1,48.7,37.1,48.7,37.1
		C48.7,37.1,48.7,37.1,48.7,37.1z M50.4,36.6C50.4,36.6,50.4,36.6,50.4,36.6c0,0.1,0.1,0.2,0.1,0.1c0.1,0,0.1-0.1,0.2-0.2
		c0,0,0,0,0,0C50.6,36.5,50.5,36.5,50.4,36.6z"/>
	<path class="st1" d="M50.4,36.6c0.1,0,0.2,0,0.3-0.1c0,0,0,0,0,0c-0.1,0.1-0.1,0.1-0.2,0.2C50.5,36.7,50.4,36.7,50.4,36.6
		C50.4,36.6,50.4,36.6,50.4,36.6z"/>
</g>
</svg>
