<?xml version="1.0" encoding="utf-8"?>
<svg version="1.1" id="Velocidades" xmlns="http://www.w3.org/2000/svg" xmlns:xlink="http://www.w3.org/1999/xlink" x="0px" y="0px" viewBox="0 0 500 400" style="enable-background: new 0 0 500 400;" xml:space="preserve">
    <style type="text/css">
        .st0 {
            fill: none;
        }
        .st1 {
            fill: #1e1e1c;
        }
        .st2 {
            font-family: "BarlowSemiCondensed-LightItalic";
        }
        .st3 {
            font-size: 7.5px;
        }
        .st4 {
            fill: #b1b1b1;
        }
        .st5 {
            fill: #d9d9d9;
        }
        .st6 {
            fill: #db9f00;
        }
        .st7 {
            fill: none;
            stroke: #db9f00;
            stroke-width: 0.5971;
            stroke-miterlimit: 10;
        }
        .st8 {
            fill: none;
            stroke: #b1b1b1;
            stroke-width: 0.5971;
            stroke-miterlimit: 10;
        }

        .st9 {
            fill: none;
            stroke: #1e1e1c;
            stroke-width: 0.75;
            stroke-linecap: round;
            stroke-linejoin: round;
            stroke-miterlimit: 10;
            stroke-dasharray: 0, 4, 0, 0;
        }

        .st10 {
            fill: none;
            stroke: #1e1e1c;
            stroke-width: 0.8957;
            stroke-linecap: round;
            stroke-linejoin: round;
            stroke-miterlimit: 10;
            stroke-dasharray: 0, 4.7771, 0, 0;
        }
        .st11 {
            font-family: "BarlowSemiCondensed-Light";
        }
        .st12 {
            font-size: 8.9571px;
        }
        .st13 {
            font-family: "BarlowSemiCondensed-SemiBold";
        }
        .st14 {
            fill: none;
            stroke: #1e1e1c;
            stroke-width: 0.5;
            stroke-miterlimit: 10;
        }
        .st15 {
            fill: none;
            stroke: #d9d9d9;
            stroke-width: 0.5971;
            stroke-miterlimit: 10;
        }

    </style>
    <rect x="124.51" y="258.41" class="st0" width="209.93" height="6.75" />
    <g id="Gibon">
        <g>
            <path
                class="st6"
                d="m252.45 160.29c0.02 0.02 0.03 0.04 0.05 0.06 0.07 0.1 0.1 0.22 0.17 0.32 0.07 0.09 0.17 0.22 0.26 0.22 0.57 0.02 1.14 0.01 1.78 0.01-0.01-0.01-0.03-0.02-0.04-0.03-0.09-0.07-0.16-0.15-0.23-0.16-0.33-0.03-0.66-0.02-1-0.03-0.08 0-0.15-0.01-0.3-0.03 0.13-0.14 0.23-0.21 0.29-0.31 0.05-0.1 0.11-0.25 0.08-0.34l-1.06 0.29zm-4.97-16.94z"
            />
            <path class="st6" d="m254.78 160.61c-0.03 0.34 0.21 0.48 0.42 0.64 0.03 0.02 0.17-0.05 0.18-0.1 0.06-0.27-0.3-0.58-0.6-0.54z" />
            <path class="st6" d="m251.66 161.27c-0.26-0.26-0.63-0.23-0.96-0.3 0.31 0.12 0.62 0.25 0.93 0.37 0.01-0.02 0.02-0.05 0.03-0.07z" />
            <path
                class="st6"
                d="m252.45 160.29c0.02 0.02 0.03 0.04 0.05 0.06l0.43 0.54s1.01-0.12 1.74-0.02c0.06 0.01 0.12 0.02 0.17 0.03 0.09 0.02 0.18 0.04 0.25 0.07 0.12 0.05 0.22 0.1 0.3 0.15 0.38 0.23 0.45 0.47 0.65 0.47 0.25 0.01 0.47-0.26 0.31-0.44-0.17-0.18-0.67-0.72-1.26-0.97s-1.59-0.19-1.59-0.19l-1.05 0.3z"
            />
            <path
                class="st6"
                d="m235.66 140.08c0 0.11 0.06 0.22 0.11 0.32 0.02 0.03 0.13 0.04 0.13 0.06 0 0.35 0.26 0.19 0.42 0.22 0.21 0.05 0.42 0.09 0.63 0.14 0.1 0.02 0.21 0.07 0.31 0.06 0.35-0.05 0.6 0.09 0.73 0.4 0.19 0.45 0.35 0.91 0.54 1.36 0.25 0.58 0.51 1.15 0.79 1.71 0.19 0.38 0.42 0.74 0.64 1.1 0.03 0.06 0.06 0.12 0.11 0.16 0.49 0.45 0.67 1.07 0.95 1.64 0.35 0.72 0.7 1.43 1.04 2.16 0.18 0.39 0.33 0.79 0.5 1.18 0.07 0.17 0.16 0.32 0.23 0.49 0.05 0.12 0.09 0.24 0.14 0.39 0.03 0.01 0.1 0.02 0.11 0.02 0.09 0.24 0.19 0.44 0.24 0.65 0.12 0.6 0.21 1.21 0.33 1.82 0.05 0.25 0.17 0.49 0.26 0.74 0.26 0.67 0.53 1.34 0.8 2 0.07 0.17 0.2 0.3 0.28 0.47 0.17 0.33 0.42 0.53 0.81 0.55 0.03 0 0.07 0.01 0.09 0.02 0.28 0.17 0.55 0.37 0.84 0.51 0.46 0.22 0.95 0.34 1.46 0.21 0.61-0.15 0.8-0.06 1.05 0.51 0.25 0.55 0.51 1.09 0.77 1.64l0.03 0.06c0.05 0.09 0.11 0.11 0.26 0.03 0.19-0.11 0.41-0.15 0.63-0.21 0.06-0.01 0.11-0.03 0.16-0.04-0.31-0.32-0.29-0.78-0.29-1.22 0-0.08 0-0.16 0.02-0.24 0.05-0.17 0.17-0.2 0.29-0.08 0.46 0.46 0.93 0.92 1.38 1.39l1.05-0.29c-0.14-0.36-0.33-0.71-0.48-1.07-0.23-0.53-0.65-0.9-1.03-1.3-0.26-0.28-0.54-0.55-0.84-0.79-0.11-0.09-0.29-0.15-0.44-0.16-0.41-0.02-0.81-0.03-1.15-0.33-0.12-0.1-0.32-0.13-0.48-0.16-0.53-0.07-1.02-0.23-1.49-0.46-0.2-0.1-0.32-0.22-0.22-0.44 0.28-0.68 0.37-1.39 0.39-2.11 0.01-0.29 0.06-0.3 0.34-0.21 0.07 0.02 0.14 0.03 0.22 0.02 0.53-0.02 1.06-0.06 1.59-0.07 0.49-0.02 0.98-0.02 1.47-0.03 0.36-0.01 0.62-0.22 0.85-0.45 0.38-0.37 0.74-0.76 1.07-1.18 0.21-0.27 0.34-0.61 0.52-0.91 0.13-0.21 0.28-0.4 0.41-0.6 0.26-0.38 0.52-0.76 0.78-1.14 0.03-0.04 0.06-0.08 0.09-0.11 0.21-0.27 0.46-0.5 0.55-0.87 0.06-0.23 0.32-0.42 0.5-0.62 0.32-0.34 0.66-0.68 1-1.03-0.22-0.07-0.11-0.19-0.02-0.3 0.13-0.15 0.28-0.3 0.1-0.52-0.13 0.11-0.26 0.22-0.39 0.32-0.02-0.02-0.04-0.03-0.06-0.05 0.08-0.14 0.16-0.27 0.23-0.41l-0.03-0.03c-0.33 0.39-0.66 0.77-1.01 1.18-0.07-0.08-0.1-0.12-0.19-0.22-0.14 0.25-0.27 0.46-0.37 0.68-0.09 0.19-0.12 0.41-0.21 0.6-0.02 0.06-0.13 0.14-0.18 0.13-0.22-0.04-0.33 0.08-0.45 0.23-0.25 0.33-0.5 0.67-0.77 0.98-0.14 0.16-0.34 0.28-0.48 0.43-0.39 0.42-0.76 0.87-1.15 1.28-0.26 0.28-0.54 0.54-0.85 0.77-0.37 0.26-0.81 0.2-1.21 0.09-0.67-0.19-1.34-0.35-2.04-0.39-0.27-0.02-0.46 0.07-0.6 0.3-0.07 0.11-0.11 0.14-0.22 0.03-0.26-0.26-0.48-0.55-0.64-0.89-0.16-0.35-0.14-0.54 0.16-0.78 0.06-0.05 0.11-0.1 0.16-0.15 0.2-0.24 0.43-0.4 0.76-0.26 0.1-0.41-0.79-0.98-1.24-1.01-0.58-0.05-1.24 0.33-1.34 0.81h-0.23c-0.06 0-0.12-0.01-0.17 0.01-0.29 0.14-0.28 0.14-0.45-0.15-0.07-0.13-0.11-0.26-0.33-0.28-0.12-0.01-0.25-0.27-0.31-0.44-0.06-0.18-0.15-0.32-0.29-0.45-0.18-0.17-0.31-0.4-0.44-0.61-0.29-0.45-0.57-0.91-0.87-1.36-0.32-0.47-0.69-0.9-1.09-1.3-0.63-0.63-1.03-1.42-1.44-2.2-0.07-0.13-0.17-0.24-0.24-0.36-0.08-0.13-0.15-0.25-0.25-0.42 0.29 0.02 0.52 0.01 0.74 0.05 0.44 0.08 0.88 0.17 1.32 0.29 0.25 0.07 0.26 0.16 0.13 0.37-0.06 0.09-0.09 0.2-0.13 0.3 0.11 0.03 0.23 0.09 0.34 0.09 0.26 0 0.49-0.11 0.67-0.31 0.16-0.18 0.33-0.18 0.65-0.04 0.2 0.09 0.18 0.24 0.16 0.41-0.02 0.13-0.04 0.26-0.03 0.39 0 0.11 0.05 0.22 0.07 0.33 0.03 0 0.05-0.01 0.08-0.01 0.03-0.14 0.11-0.28 0.1-0.41-0.02-0.21 0.06-0.37 0.2-0.5 0.07-0.06 0.17-0.11 0.26-0.11s0.17 0.07 0.26 0.11c-0.04 0.08-0.09 0.15-0.14 0.24 0.34-0.09 0.7-0.22 1.06-0.08 0.04 0.01 0.07 0.05 0.18 0.12-0.16 0.02-0.24 0.03-0.33 0.04 0.1 0.17 0.22 0.2 0.38 0.13 0.09-0.05 0.2-0.08 0.3-0.07 0.23 0.03 0.46 0.06 0.67 0.13 0.54 0.19 1.06 0.41 1.59 0.62-0.04-0.25-0.06-0.5-0.13-0.74-0.03-0.09-0.15-0.17-0.23-0.24-0.05-0.04-0.12-0.05-0.18-0.07-0.4-0.16-0.4-0.16-0.65 0.16l0.06-0.42-0.05-0.05-0.36 0.3c-0.02 0.02-0.06 0.05-0.08 0.05-0.26-0.05-0.53-0.1-0.78-0.15-0.29-0.07-0.46-0.23-0.51-0.55-0.03-0.16-0.19-0.29-0.31-0.46-0.12 0.24-0.28 0.35-0.52 0.26-0.02-0.01-0.06-0.01-0.07 0-0.19 0.31-0.33 0-0.52-0.02-0.09 0.04-0.19 0.1-0.31 0.14-0.04 0.01-0.11-0.02-0.15-0.06-0.02-0.02 0.01-0.09 0.02-0.13 0.02-0.11 0.05-0.22 0.07-0.33-0.1-0.02-0.21-0.06-0.32-0.06-0.09-0.01-0.18 0.01-0.29 0.02 0.06 0.22-0.05 0.3-0.24 0.29-0.11-0.14-0.21-0.26-0.34-0.43-0.14 0.28-0.36 0.24-0.59 0.21-0.14-0.02-0.29 0.08-0.46 0.13-0.1-0.28-0.29-0.28-0.54-0.17-0.05 0.02-0.17-0.01-0.2-0.06-0.12-0.17-0.28-0.17-0.43-0.12-0.17 0.06-0.26 0-0.36-0.11-0.15-0.18-0.31-0.36-0.48-0.53-0.28-0.28-0.37-0.28-0.64 0.01-0.09 0.1-0.15 0.23-0.23 0.34h-0.03c-0.11-0.3-0.29-0.31-0.59-0.22-0.21 0.06-0.5 0.11-0.72-0.09-0.03-0.03-0.14 0-0.2 0.01-0.09 0.02-0.18 0.05-0.31 0.08 0.06-0.14 0.09-0.23 0.13-0.32-0.02-0.02-0.03-0.04-0.05-0.06-0.15 0.04-0.28 0.09-0.28 0.13z"
            />
            <path
                class="st6"
                d="m250 160.66c0.01 0.05 0.04 0.1 0.07 0.1 0.08 0 0.4 0.28 0.74 0.28 0.04 0 0.08 0.01 0.13 0.02 0.02 0.01 0.05 0.02 0.07 0.03 0.28 0.13 0.56 0.48 0.78 0.73 0.28 0.31 0.25 0.55 0.25 0.55s0.46-0.04 0.54-0.1-0.02-0.57-0.1-0.73-0.27-0.37-0.33-0.49-1.08-0.47-1.25-0.55h-0.01c-0.22 0.06-0.44 0.1-0.63 0.21-0.15 0.06-0.21 0.04-0.26-0.05z"
            />
            <path class="st6" d="m247.87 149.46c0.02 0.11 0.11 0.43 0.11 0.6s-0.24 0.48-0.35 0.62c-0.11 0.13-0.19 0.35-0.34 0.21-0.15-0.15-0.41-0.44-0.47-0.68-0.06-0.25 0-0.4 0.13-0.51s0.22-0.3 0.35-0.41 0.26-0.19 0.41 0l0.16 0.17z" />
        </g>
        <path class="st7" d="M235.08,137.62c9.29,7.26,19.09,7.26,29.84,3.91" />
    </g>
</svg>
