<?xml version="1.0" encoding="utf-8"?>
<svg version="1.1" id="Velocidades" xmlns="http://www.w3.org/2000/svg" xmlns:xlink="http://www.w3.org/1999/xlink" x="0px" y="0px" viewBox="0 0 500 400" style="enable-background: new 0 0 500 400;" xml:space="preserve">
    <style type="text/css">
        .st0 {
            fill: none;
        }
        .st1 {
            fill: #1e1e1c;
        }
        .st2 {
            font-family: "BarlowSemiCondensed-LightItalic";
        }
        .st3 {
            font-size: 7.5px;
        }
        .st4 {
            fill: #b1b1b1;
        }
        .st5 {
            fill: #d9d9d9;
        }
        .st6 {
            fill: #db9f00;
        }
        .st7 {
            fill: none;
            stroke: #db9f00;
            stroke-width: 0.5971;
            stroke-miterlimit: 10;
        }
        .st8 {
            fill: none;
            stroke: #b1b1b1;
            stroke-width: 0.5971;
            stroke-miterlimit: 10;
        }

        .st9 {
            fill: none;
            stroke: #1e1e1c;
            stroke-width: 0.75;
            stroke-linecap: round;
            stroke-linejoin: round;
            stroke-miterlimit: 10;
            stroke-dasharray: 0, 4, 0, 0;
        }

        .st10 {
            fill: none;
            stroke: #1e1e1c;
            stroke-width: 0.8957;
            stroke-linecap: round;
            stroke-linejoin: round;
            stroke-miterlimit: 10;
            stroke-dasharray: 0, 4.7771, 0, 0;
        }
        .st11 {
            font-family: "BarlowSemiCondensed-Light";
        }
        .st12 {
            font-size: 8.9571px;
        }
        .st13 {
            font-family: "BarlowSemiCondensed-SemiBold";
        }
        .st14 {
            fill: none;
            stroke: #1e1e1c;
            stroke-width: 0.5;
            stroke-miterlimit: 10;
        }
        .st15 {
            fill: none;
            stroke: #d9d9d9;
            stroke-width: 0.5971;
            stroke-miterlimit: 10;
        }
    </style>
    <rect x="124.51" y="258.41" class="st0" width="209.93" height="6.75" />
   <path
        id="Humano"
        class="st5"
        d="m199.67 240.13c-0.85 0.65-1.77 1.06-2.75 1.36-0.07 0.02-0.17 0.12-0.17 0.2-0.05 0.54-0.1 1.09-0.09 1.63 0 0.27 0.11 0.54 0.18 0.8 0.17 0.6 0.38 1.2 0.52 1.81 0.08 0.32 0.09 0.67 0.08 1-0.02 0.4-0.52 0.65-0.94 0.49-0.43-0.17-0.72-0.49-0.91-0.9-0.11-0.23 0.08-0.42 0.19-0.61 0.06-0.11 0.13-0.22 0.14-0.34 0.07-0.7-0.09-1.37-0.34-2.02-0.31-0.81-0.38-1.66-0.3-2.51 0.02-0.18 0.19-0.37 0.33-0.51 0.63-0.62 1.38-1.07 2.16-1.48 0.44-0.23 0.77-0.57 1.13-0.89 0.15-0.13 0.3-0.26 0.47-0.37 0.24-0.16 0.51-0.25 0.81-0.26 0.72-0.03 1.44-0.11 2.15-0.19 0.05-0.01 0.12-0.09 0.14-0.15 0.02-0.09 0-0.2 0.01-0.3 0.02-0.16-0.04-0.26-0.17-0.37-0.72-0.61-1.05-1.37-0.82-2.31 0.16-0.66 0.59-1.11 1.21-1.39 0.57-0.26 1.17-0.33 1.78-0.25 0.73 0.1 1.16 0.59 1.41 1.24 0.1 0.24 0.13 0.5 0.22 0.75 0.08 0.21 0.17 0.42 0.29 0.61 0.17 0.3 0.16 0.37-0.11 0.56-0.06 0.04-0.09 0.13-0.1 0.21-0.03 0.2-0.03 0.4-0.06 0.59-0.07 0.58-0.28 0.77-0.86 0.78 0.03 0.25 0.21 0.34 0.42 0.35 0.59 0.03 0.97 0.33 1.19 0.86 0.02 0.05 0.06 0.1 0.1 0.15 0.18 0.23 0.3 0.49 0.33 0.79 0.04 0.47 0.08 0.94 0.29 1.38 0.15 0.31 0.19 0.68 0.25 1.02 0.04 0.28 0.14 0.53 0.31 0.75 0.12 0.17 0.23 0.36 0.35 0.55 0.22-0.13 0.44-0.23 0.62-0.38 0.1-0.09 0.16-0.26 0.19-0.4 0.07-0.27 0.22-0.41 0.51-0.4 0.07 0 0.15-0.02 0.23-0.03 0.28-0.06 0.48 0.06 0.63 0.28 0.23 0.35 0.28 0.76 0.3 1.16 0 0.03-0.01 0.09-0.03 0.1-0.24 0.16-0.43 0.44-0.78 0.38-0.29-0.05-0.53 0.04-0.77 0.21-0.32 0.23-0.68 0.42-1 0.66-0.51 0.38-0.97 0.13-1.23-0.21-0.22-0.29-0.38-0.62-0.57-0.94-0.03-0.05-0.05-0.11-0.1-0.21-0.13 0.44-0.24 0.83-0.36 1.22-0.28 0.95-0.6 1.9-0.84 2.86-0.17 0.67-0.23 1.36-0.34 2.04-0.05 0.31-0.1 0.62-0.12 0.93-0.01 0.16-0.01 0.35 0.06 0.48 0.51 0.86 1.03 1.72 1.57 2.57 0.35 0.56 0.74 1.09 1.12 1.63 0.2 0.3 0.3 0.62 0.34 0.99 0.12 1.2 0.24 2.41 0.42 3.61 0.16 1.02 0.39 2.03 0.62 3.04 0.09 0.38 0.22 0.77 0.39 1.12 0.25 0.51 0.71 0.82 1.18 1.1 0.37 0.22 0.76 0.4 1.14 0.59 0.31 0.15 0.63 0.24 0.98 0.21 0.13-0.01 0.26 0 0.38 0.04 0.37 0.12 0.43 0.41 0.18 0.69-0.24 0.27-0.56 0.42-0.9 0.53-0.29 0.1-0.59 0.17-0.91 0.17-0.53 0.01-1.06 0.12-1.59 0.18-0.35 0.04-0.7 0.1-1.04 0.08-0.33-0.02-0.48-0.24-0.51-0.57-0.14-1.28-0.3-2.56-0.73-3.78-0.13-0.37-0.33-0.72-0.54-1.06-0.84-1.34-1.4-2.76-1.43-4.35 0-0.15-0.01-0.31-0.02-0.46-0.02-0.38-0.15-0.69-0.47-0.94-0.79-0.63-1.55-1.3-2.33-1.95-0.03-0.03-0.07-0.06-0.1-0.1-0.11-0.15-0.22-0.11-0.32 0.01-0.58 0.7-1.16 1.39-1.73 2.09-0.45 0.54-0.88 1.08-1.33 1.61-0.35 0.42-0.92 0.54-1.47 0.33-1.33-0.52-2.64-1.06-3.98-1.57-1.01-0.38-2.04-0.72-3.06-1.06-0.14-0.05-0.32-0.03-0.46 0.02-0.54 0.2-1.07 0.35-1.65 0.32-0.38-0.02-0.69 0.18-0.99 0.38-0.15 0.1-0.27 0.24-0.42 0.32-0.13 0.06-0.3 0.1-0.43 0.06-0.09-0.03-0.17-0.19-0.19-0.31-0.07-0.52 0.15-0.96 0.5-1.31 0.27-0.27 0.57-0.55 0.91-0.72 0.45-0.23 0.76-0.56 1.02-0.96 0.09-0.14 0.18-0.28 0.27-0.43 0.24-0.41 0.45-0.49 0.92-0.38 0.17 0.04 0.3 0.12 0.4 0.27 0.18 0.28 0.36 0.58 0.6 0.81 0.19 0.18 0.45 0.33 0.71 0.4 0.72 0.2 1.44 0.35 2.17 0.51 0.14 0.03 0.29 0.01 0.43-0.01 0.66-0.06 1.32-0.01 1.96 0.19 0.22 0.07 0.42 0.24 0.62 0.38 0.22 0.15 0.44 0.27 0.7 0.14 0.25-0.12 0.32-0.35 0.36-0.62 0.08-0.65 0.35-1.25 0.64-1.84 0.14-0.28 0.29-0.56 0.44-0.84 0.16-0.3 0.15-0.6 0.06-0.93-0.34-1.18-0.35-2.36 0.22-3.49 0.1-0.19 0.26-0.37 0.42-0.51 0.22-0.19 0.32-0.41 0.34-0.7 0.06-0.87-0.09-1.72-0.24-2.58-0.12-0.74-0.19-1.49-0.27-2.24-0.08-0.45-0.1-0.94-0.14-1.46z"
    />
</svg>
